<?xml version="1.0" encoding="utf-8"?>
<svg version="1.1" xmlns="http://www.w3.org/2000/svg" style="display: block;" viewBox="0 0 2048 1905" width="1500" height="1395" preserveAspectRatio="none">
  <path transform="translate(0,0)" fill="#620d0d" fill-opacity="0.843137" d="M 1641.45 646.487 C 1657.55 650.32 1684.89 659.77 1700.46 665.851 C 1821.51 713.117 1929.5 805.326 1982.79 925.025 C 2055.75 1088.89 2031.87 1273.58 1959.22 1432.49 C 1948.34 1456.29 1936.26 1479.51 1923.01 1502.07 C 1915.69 1514.38 1898.73 1537.74 1894.49 1550.2 C 1893.68 1550.48 1892.87 1550.76 1892.06 1551.04 C 1814.48 1660.83 1696.38 1768.63 1555.63 1780.15 C 1389.23 1793.76 1239.65 1673.64 1124.2 1567.96 C 1118.91 1563.15 1113.88 1558.53 1109.05 1553.25 C 1154.15 1527.87 1201.85 1499.93 1246.36 1473.66 C 1327.36 1425.84 1419.69 1369.42 1487.45 1303.76 C 1529 1264.09 1561.9 1216.27 1584.1 1163.29 C 1642.76 1024.17 1638.83 799.152 1641.45 646.487 z"/>
  <path transform="translate(0,0)" fill="#620d0d" fill-opacity="0.843137" d="M 181.875 661.135 C 183.291 658.185 181.893 625.405 182.227 618.948 C 182.974 600.68 184.545 583.464 186.471 565.19 C 212.503 318.218 421.489 61.7678 688.231 85.4365 C 791.132 94.5672 882.666 171.512 944.328 251.305 C 970.529 281.63 992.142 315.208 1016.69 344.569 C 835.903 456.893 738.699 457.455 534.019 457.397 C 533.231 561.284 533.897 665.177 536.017 769.046 C 539.388 918.92 543.256 1103.49 627.118 1232.18 C 620.581 1230.81 594.023 1218.17 586.761 1214.85 C 553.987 1199.86 522.633 1186.7 491.164 1169.02 C 344.854 1086.84 239.408 947.412 200.182 784.255 C 194.086 759.596 190.186 736.451 186.77 711.383 C 185.217 699.987 184.853 670.189 181.875 661.135 z" style=""/>
  <path transform="translate(0,0)" fill="#620d0d" fill-opacity="0.843137" d="M 768.862 693.118 L 848.946 692.971 L 848.854 867.954 C 848.828 896.262 848.959 926.559 849.308 954.654 C 850.068 1015.72 885.806 1011.65 934.451 1012.23 C 966.204 1012.61 1001.64 1011.77 1005.97 971.341 C 1009.52 938.323 1008.2 904.71 1008.2 871.433 L 1008.24 693.11 L 1088.09 692.966 L 1087.83 734.165 C 1096.59 727.477 1105.87 721.492 1115.58 716.266 C 1161.72 691.758 1215.73 686.664 1265.64 702.113 C 1322.95 720.027 1360.58 756.546 1387.96 808.679 C 1478.76 1010.84 1227.13 1189.75 1065.61 1032.19 C 1035.99 1083.55 974.103 1091.85 920.402 1091.99 C 852.024 1092.16 790.298 1064.74 774.904 992.583 C 765.92 950.471 768.796 906.293 768.797 863.385 L 768.862 693.118 z M 1218.54 1011.7 C 1284.27 1005.55 1332.56 947.263 1326.4 881.53 C 1320.23 815.797 1261.94 767.512 1196.21 773.689 C 1130.49 779.864 1082.22 838.138 1088.38 903.856 C 1094.55 969.574 1152.82 1017.86 1218.54 1011.7 z"/>
  <path fill="rgb(149,9,8)" fill-opacity="0.85098" d="M 942.328 252.305 C 974.385 181.495 1015.83 92.285 1093.91 64.58 C 1170.82 37.291 1270.27 59.518 1342.79 91.785 C 1497.27 160.515 1495.56 312.592 1477.77 455.353 C 1445.18 452.552 1419.37 450.257 1387.1 443.957 C 1277.25 422.512 1177.78 361.227 1085.56 299.921 C 1062.45 315.921 1038.81 331.146 1014.69 345.569 C 990.142 316.208 968.529 282.63 942.328 252.305 Z"/>
  <path fill="rgb(149,9,8)" fill-opacity="0.85098" d="M 770.473 1366.95 C 795.047 1387.36 848.497 1420.68 875.941 1437.64 C 946.962 1480.93 1018.71 1523.01 1091.15 1563.86 C 1098.18 1559.55 1105.28 1555.35 1112.43 1551.25 C 1117.24 1556.53 1122.25 1561.15 1127.52 1565.96 C 1242.47 1671.64 1391.4 1791.76 1557.09 1778.15 C 1697.23 1766.63 1814.82 1658.83 1892.07 1549.04 C 1892.88 1548.76 1893.68 1548.48 1894.49 1548.2 C 1890.8 1564.09 1881.86 1586.48 1875.02 1601.45 C 1838.7 1681.15 1781.73 1741.61 1708.26 1787.85 C 1582.4 1867.07 1428.77 1886.35 1285.14 1852.06 C 1106.44 1809.41 959.623 1689.54 863.95 1534.11 C 829.965 1478.9 803.706 1422.11 770.473 1366.95 Z" style=""/>
  <path fill="rgb(149,9,8)" fill-opacity="0.85098" d="M 183.875 660.135 C 186.853 669.189 187.217 698.987 188.77 710.383 C 192.186 735.451 196.086 758.596 202.182 783.255 C 241.408 946.412 346.854 1085.84 493.164 1168.02 C 524.633 1185.7 555.987 1198.86 588.761 1213.85 C 596.023 1217.17 622.581 1229.81 629.118 1231.18 L 631.139 1234.59 L 630.15 1235.28 C 623.66 1234.14 614.993 1229.43 607.261 1227.38 C 583.059 1221.01 558.225 1217.35 533.215 1216.46 C 435.845 1213.25 343.377 1244.04 243.029 1215.05 C 164.681 1192.42 102.558 1147.11 62.409 1075.41 C 24.187 1006.81 14.759 925.851 36.196 850.307 C 54.127 786.865 92.148 731.973 142.524 689.975 C 156.362 678.439 168.036 669.029 183.875 660.135 Z"/>
</svg>