<svg xmlns="http://www.w3.org/2000/svg" width="338" height="72" viewBox="0 0 338 72" fill="none">
    <path d="M140.299 14.4002V57.6002H132.799V23.7002H132.699L119.299 57.6002H114.299L100.599 23.7002V57.6002H93.6992V14.4002H104.499L116.899 46.4002H117.099L130.199 14.4002H140.499H140.299ZM146.599 17.7002C146.599 16.5002 146.999 15.5002 147.899 14.7002C148.799 13.9002 149.799 13.5002 150.999 13.5002C152.199 13.5002 153.399 13.9002 154.199 14.8002C154.999 15.6002 155.499 16.6002 155.499 17.8002C155.499 19.0002 155.099 20.0002 154.199 20.8002C153.299 21.6002 152.299 22.0002 150.999 22.0002C149.699 22.0002 148.699 21.6002 147.899 20.8002C146.999 20.0002 146.599 19.0002 146.599 17.8002V17.7002ZM154.699 26.6002V57.6002H147.399V26.6002H154.699ZM176.799 52.3002C177.899 52.3002 179.099 52.0002 180.399 51.5002C181.699 51.0002 182.899 50.3002 183.999 49.5002V56.3002C182.799 57.0002 181.499 57.5002 179.999 57.8002C178.499 58.1002 176.899 58.3002 175.099 58.3002C170.499 58.3002 166.799 56.9002 163.999 54.0002C161.099 51.1002 159.699 47.4002 159.699 43.0002C159.699 38.6002 161.199 33.9002 164.099 30.7002C166.999 27.5002 171.099 25.9002 176.499 25.9002C181.899 25.9002 179.199 26.1002 180.599 26.4002C181.999 26.8002 183.099 27.2002 183.899 27.6002V34.6002C182.799 33.8002 181.599 33.1002 180.499 32.7002C179.299 32.2002 178.099 32.0002 176.899 32.0002C173.999 32.0002 171.699 32.9002 169.899 34.8002C168.099 36.7002 167.199 39.2002 167.199 42.4002C167.199 45.6002 167.999 48.0002 169.699 49.7002C171.399 51.4002 173.699 52.3002 176.599 52.3002H176.799ZM204.699 26.1002C205.299 26.1002 205.799 26.1002 206.299 26.2002C206.799 26.3002 207.199 26.4002 207.499 26.5002V33.9002C207.099 33.6002 206.599 33.4002 205.799 33.1002C205.099 32.8002 204.199 32.7002 203.099 32.7002C201.299 32.7002 199.799 33.5002 198.599 35.0002C197.399 36.5002 196.699 38.8002 196.699 42.0002V57.6002H189.399V26.6002H196.699V31.5002H196.799C197.499 29.8002 198.499 28.5002 199.799 27.5002C201.099 26.5002 202.799 26.1002 204.699 26.1002ZM207.899 42.6002C207.899 37.5002 209.299 33.4002 212.199 30.4002C215.099 27.4002 219.099 25.9002 224.299 25.9002C229.499 25.9002 232.899 27.3002 235.599 30.2002C238.299 33.1002 239.699 37.0002 239.699 41.9002C239.699 46.8002 238.299 50.9002 235.399 53.9002C232.499 56.9002 228.599 58.4002 223.599 58.4002C218.599 58.4002 214.999 57.0002 212.199 54.2002C209.399 51.4002 207.999 47.5002 207.999 42.6002H207.899ZM215.499 42.3002C215.499 45.5002 216.199 48.0002 217.699 49.7002C219.199 51.4002 221.299 52.3002 223.999 52.3002C226.699 52.3002 228.699 51.4002 230.099 49.7002C231.499 48.0002 232.199 45.5002 232.199 42.1002C232.199 38.7002 231.499 36.3002 229.999 34.6002C228.599 32.9002 226.599 32.1002 223.999 32.1002C221.399 32.1002 219.299 33.0002 217.799 34.8002C216.299 36.6002 215.599 39.1002 215.599 42.4002L215.499 42.3002ZM250.499 34.8002C250.499 35.8002 250.799 36.7002 251.499 37.3002C252.199 37.9002 253.599 38.6002 255.899 39.5002C258.799 40.7002 260.899 42.0002 261.999 43.4002C263.199 44.9002 263.799 46.6002 263.799 48.7002C263.799 50.8002 262.699 54.0002 260.399 55.7002C258.199 57.5002 255.099 58.4002 251.299 58.4002C247.499 58.4002 248.599 58.2002 246.999 57.9002C245.399 57.6002 244.099 57.2002 242.999 56.7002V49.5002C244.299 50.4002 245.799 51.2002 247.299 51.7002C248.799 52.2002 250.199 52.5002 251.499 52.5002C252.799 52.5002 254.399 52.3002 255.099 51.8002C255.799 51.3002 256.299 50.6002 256.299 49.5002C256.299 48.4002 255.899 47.6002 255.099 47.0002C254.299 46.4002 252.699 45.5002 250.499 44.6002C247.799 43.5002 245.899 42.2002 244.799 40.8002C243.699 39.4002 243.099 37.6002 243.099 35.4002C243.099 33.2002 244.199 30.3002 246.399 28.5002C248.599 26.7002 251.499 25.8002 254.999 25.8002C258.499 25.8002 257.299 25.9002 258.599 26.2002C259.899 26.4002 261.099 26.8002 261.999 27.1002V34.0002C260.999 33.4002 259.899 32.8002 258.599 32.3002C257.299 31.8002 255.999 31.6002 254.799 31.6002C253.599 31.6002 252.299 31.9002 251.599 32.4002C250.799 32.9002 250.399 33.7002 250.399 34.6002L250.499 34.8002ZM266.899 42.6002C266.899 37.5002 268.299 33.4002 271.199 30.4002C274.099 27.4002 278.099 25.9002 283.299 25.9002C288.499 25.9002 291.899 27.3002 294.599 30.2002C297.299 33.1002 298.699 37.0002 298.699 41.9002C298.699 46.8002 297.299 50.9002 294.399 53.9002C291.499 56.9002 287.599 58.4002 282.599 58.4002C277.599 58.4002 273.999 57.0002 271.199 54.2002C268.399 51.4002 266.999 47.5002 266.999 42.6002H266.899ZM274.499 42.3002C274.499 45.5002 275.199 48.0002 276.699 49.7002C278.199 51.4002 280.299 52.3002 282.999 52.3002C285.699 52.3002 287.699 51.4002 289.099 49.7002C290.499 48.0002 291.199 45.5002 291.199 42.1002C291.199 38.7002 290.499 36.3002 288.999 34.6002C287.599 32.9002 285.599 32.1002 282.999 32.1002C280.399 32.1002 278.299 33.0002 276.799 34.8002C275.299 36.6002 274.599 39.1002 274.599 42.4002L274.499 42.3002ZM322.899 32.6002H311.999V57.6002H304.599V32.6002H299.399V26.6002H304.599V22.3002C304.599 19.0002 305.699 16.4002 307.799 14.3002C309.899 12.2002 312.599 11.2002 315.899 11.2002C319.199 11.2002 317.599 11.2002 318.299 11.3002C318.999 11.3002 319.599 11.5002 320.099 11.7002V18.0002C319.899 17.9002 319.399 17.7002 318.799 17.5002C318.199 17.3002 317.499 17.2002 316.699 17.2002C315.199 17.2002 313.999 17.7002 313.199 18.6002C312.399 19.5002 311.999 21.0002 311.999 22.8002V26.5002H322.899V19.5002L330.199 17.3002V26.5002H337.599V32.5002H330.199V47.0002C330.199 48.9002 330.499 50.3002 331.199 51.0002C331.899 51.8002 332.999 52.2002 334.499 52.2002C335.999 52.2002 335.399 52.1002 335.999 51.9002C336.599 51.7002 337.099 51.5002 337.599 51.2002V57.2002C337.099 57.5002 336.399 57.7002 335.299 57.9002C334.199 58.1002 333.199 58.2002 332.099 58.2002C328.999 58.2002 326.699 57.4002 325.199 55.7002C323.699 54.1002 322.899 51.6002 322.899 48.3002V32.4002V32.6002Z" fill="#737373"/>
    <path d="M34.2 0H0V34.2H34.2V0Z" fill="#f25022"/>
    <path d="M72.0008 0H37.8008V34.2H72.0008V0Z" fill="#7fba00"/>
    <path d="M34.2 37.7998H0V71.9998H34.2V37.7998Z" fill=" #00a4ef"/>
    <path d="M72.0008 37.7998H37.8008V71.9998H72.0008V37.7998Z" fill="#ffb900"/>
</svg>